<svg width="418" height="709" viewBox="0 0 418 709" fill="none" xmlns="http://www.w3.org/2000/svg">
<g clip-path="url(#clip0_34_58)">
<rect x="310" y="29.3993" width="74.7012" height="17.2106" transform="rotate(-23.1765 310 29.3993)" fill="#7F8CFF"/>
<path d="M412.207 50.4102C408.738 44.3222 403.869 39.1275 397.993 35.2465C392.117 31.3656 385.4 28.9076 378.384 28.0715C371.369 27.2355 364.253 28.0449 357.613 30.4342C350.973 32.8235 344.995 36.7255 340.163 41.8244C335.332 46.9232 331.782 53.0755 329.803 59.7832C327.823 66.4909 327.468 73.5654 328.767 80.4338C330.066 87.3023 332.983 93.7716 337.281 99.3181C341.579 104.865 347.137 109.332 353.505 112.359L361.894 95.101C358.266 93.3765 355.099 90.8313 352.651 87.6715C350.202 84.5116 348.541 80.8261 347.801 76.9131C347.06 73.0002 347.263 68.9698 348.39 65.1485C349.518 61.3271 351.54 57.8222 354.293 54.9173C357.046 52.0125 360.451 49.7895 364.234 48.4284C368.017 47.0672 372.071 46.6061 376.067 47.0824C380.064 47.5587 383.891 48.959 387.239 51.17C390.586 53.3809 393.36 56.3404 395.336 59.8087L412.207 50.4102Z" fill="white"/>
<circle cx="163.5" cy="44.4999" r="10.5" fill="#7F8CFF"/>
<rect width="76.175" height="13.6273" transform="matrix(0.801365 0.598176 0.598176 -0.801365 258.804 653.889)" fill="#7F8CFF"/>
<circle cx="275.228" cy="687.219" r="15.5552" transform="rotate(48.9435 275.228 687.219)" fill="white"/>
</g>
<defs>
<clipPath id="clip0_34_58">
<rect width="418" height="709" fill="white"/>
</clipPath>
</defs>
</svg>
